<?xml version="1.0" standalone="no"?>
<!DOCTYPE svg PUBLIC "-//W3C//DTD SVG 20010904//EN"
 "http://www.w3.org/TR/2001/REC-SVG-20010904/DTD/svg10.dtd">
<svg version="1.0" xmlns="http://www.w3.org/2000/svg"
 width="217.000000pt" height="144.000000pt" viewBox="0 0 217.000000 144.000000"
 preserveAspectRatio="xMidYMid meet">

<g transform="translate(0.000000,144.000000) scale(0.100000,-0.100000)"
fill="#000000" stroke="none">
<path d="M0 720 l0 -720 1085 0 1085 0 0 720 0 720 -1085 0 -1085 0 0 -720z
m425 516 c51 -22 73 -72 57 -132 -8 -31 -9 -51 -2 -64 20 -37 12 -88 -19 -122
l-29 -33 -116 -3 -116 -4 0 186 0 186 95 0 c61 0 108 -5 130 -14z m356 -9 c58
-38 69 -74 69 -219 l0 -128 -35 0 -35 0 0 60 0 60 -80 0 -80 0 0 -60 0 -60
-35 0 -35 0 0 128 c0 144 11 179 70 220 45 30 115 30 161 -1z m363 9 c18 -8
41 -24 50 -37 18 -26 21 -81 7 -108 -7 -12 -5 -32 5 -61 8 -24 14 -66 12 -94
-3 -50 -4 -51 -35 -54 l-33 -3 0 56 c0 88 -7 95 -95 95 l-75 0 0 -75 0 -75
-30 0 -30 0 0 185 0 185 95 0 c59 0 108 -5 129 -14z m394 -23 l3 -33 -61 0
c-108 0 -160 -38 -160 -117 0 -33 7 -50 29 -75 28 -31 33 -33 110 -36 l81 -4
0 -35 0 -36 -84 5 c-70 4 -91 9 -125 31 -106 70 -107 234 -3 299 45 28 85 37
152 35 54 -2 55 -2 58 -34z m317 3 c20 -16 45 -42 55 -60 30 -50 39 -56 80
-56 39 0 40 -1 40 -35 0 -32 -2 -35 -31 -35 -43 0 -64 -14 -90 -61 -61 -107
-218 -125 -298 -34 -17 20 -31 40 -31 45 0 23 -41 50 -75 50 -33 0 -35 2 -35
35 0 33 2 35 35 35 37 0 51 11 88 70 36 56 90 81 163 78 49 -3 69 -10 99 -32z"/>
<path d="M267 1174 c-4 -4 -7 -23 -7 -41 l0 -34 71 3 c55 2 74 7 83 21 21 33
-4 52 -75 55 -36 2 -68 0 -72 -4z"/>
<path d="M260 990 l0 -40 69 0 c50 0 74 4 85 16 19 18 19 20 6 45 -9 16 -22
19 -85 19 l-75 0 0 -40z"/>
<path d="M641 1154 c-12 -15 -21 -39 -21 -55 l0 -27 80 -4 80 -3 0 36 c0 74
-95 110 -139 53z"/>
<path d="M984 1166 c-3 -8 -4 -25 -2 -38 3 -22 7 -23 72 -23 55 0 71 4 80 18
8 12 8 22 0 35 -15 23 -141 31 -150 8z"/>
<path d="M1664 1146 c-29 -29 -34 -41 -34 -79 0 -55 33 -100 85 -117 97 -32
184 71 140 164 -21 44 -59 66 -116 66 -33 0 -47 -6 -75 -34z m130 -32 c61 -61
-14 -158 -82 -107 -33 25 -41 76 -16 104 21 23 76 25 98 3z"/>
</g>
</svg>
