<?xml version="1.0" standalone="no"?>
<!DOCTYPE svg PUBLIC "-//W3C//DTD SVG 20010904//EN"
 "http://www.w3.org/TR/2001/REC-SVG-20010904/DTD/svg10.dtd">
<svg version="1.0" xmlns="http://www.w3.org/2000/svg"
 width="150.000000pt" height="60.000000pt" viewBox="0 0 150.000000 60.000000"
 preserveAspectRatio="xMidYMid meet">

<g transform="translate(0.000000,60.000000) scale(0.100000,-0.100000)"
fill="#000000" stroke="none">
<path d="M560 585 c-14 -17 -5 -51 16 -59 22 -8 54 11 54 32 0 38 -46 56 -70
27z"/>
<path d="M367 492 c-32 -36 -10 -84 38 -84 48 0 72 54 39 86 -21 21 -57 20
-77 -2z"/>
<path d="M636 454 c-7 -19 10 -44 29 -44 19 0 36 25 29 44 -3 9 -16 16 -29 16
-13 0 -26 -7 -29 -16z"/>
<path d="M521 336 c-7 -8 -10 -24 -6 -35 14 -45 79 -30 73 17 -2 21 -9 28 -29
30 -14 2 -31 -4 -38 -12z"/>
<path d="M0 135 c0 -82 3 -98 20 -115 22 -22 70 -26 102 -9 15 8 22 8 28 -1 4
-7 16 -10 26 -8 17 3 19 15 22 116 l3 112 -26 0 c-25 0 -25 -1 -25 -81 l0 -80
-36 -15 c-54 -23 -64 -9 -64 92 0 83 0 84 -25 84 -25 0 -25 0 -25 -95z"/>
<path d="M262 116 c3 -107 4 -111 26 -114 21 -3 22 -1 22 76 0 89 8 103 62
105 l33 2 3 -92 c3 -91 3 -93 27 -93 25 0 25 1 25 93 0 130 -5 136 -115 135
l-86 -2 3 -110z"/>
<path d="M530 114 c0 -114 0 -115 23 -112 21 3 22 7 25 116 l3 112 -26 0 -25
0 0 -116z"/>
<path d="M630 220 c0 -6 22 -58 50 -116 37 -79 54 -105 66 -102 10 2 38 48 70
116 l53 112 -29 0 c-23 0 -31 -7 -43 -37 -9 -21 -23 -56 -33 -78 l-17 -40 -36
75 c-27 56 -42 76 -59 78 -12 2 -22 -2 -22 -8z"/>
<path d="M919 201 c-60 -60 -27 -167 59 -191 71 -19 102 -10 102 31 0 5 -22 9
-48 9 -35 0 -54 6 -70 20 -41 39 -29 50 53 50 l75 0 0 30 c0 78 -111 110 -171
51z m111 -26 c11 -13 6 -15 -34 -15 -25 0 -46 4 -46 9 0 23 62 27 80 6z"/>
<path d="M1152 118 c3 -109 4 -113 26 -116 21 -3 22 -1 22 77 l0 79 49 17 c41
13 48 19 44 36 -6 21 -6 21 -70 3 -14 -4 -23 -2 -23 5 0 6 -11 11 -25 11 l-26
0 3 -112z"/>
<path d="M1340 210 c0 -15 7 -20 28 -20 74 -1 99 -33 34 -44 -47 -7 -92 -40
-92 -67 0 -53 45 -79 136 -79 l54 0 0 80 c0 121 -22 150 -115 150 -38 0 -45
-3 -45 -20z m110 -135 c0 -31 -3 -35 -26 -35 -33 0 -64 17 -64 36 0 16 32 32
68 33 19 1 22 -4 22 -34z"/>
</g>
</svg>
